<svg version="1.1" id="Layer_1" xmlns="http://www.w3.org/2000/svg" xmlns:xlink="http://www.w3.org/1999/xlink" x="0px" y="0px"
	 width="100%" viewBox="0 0 638 641" enable-background="new 0 0 638 641" xml:space="preserve">
<path fill="#FFFFFF" opacity="1.000000" stroke="none" 
	d="
M369.000000,642.000000 
	C246.000015,642.000000 123.500046,642.000000 1.000049,642.000000 
	C1.000033,428.333405 1.000033,214.666794 1.000016,1.000135 
	C213.666565,1.000090 426.333130,1.000090 638.999756,1.000045 
	C638.999878,214.666519 638.999878,428.333038 638.999939,641.999756 
	C549.166687,642.000000 459.333344,642.000000 369.000000,642.000000 
M195.154816,347.451447 
	C185.958618,364.699860 185.285385,382.020752 193.212830,400.141205 
	C207.119095,431.927917 248.081116,442.119263 276.259247,421.872833 
	C284.810425,415.728638 291.827209,407.415314 299.389709,399.936615 
	C311.199280,388.257935 322.941193,376.508698 334.566803,364.647308 
	C338.054779,361.088593 340.616089,361.899353 343.753326,365.087463 
	C356.938782,378.486755 370.225250,391.787598 383.561066,405.037598 
	C391.686096,413.110260 399.722321,421.300629 408.263916,428.916046 
	C414.255676,434.258057 421.495148,433.325836 426.820068,427.552216 
	C431.401672,422.584595 431.561127,414.574219 426.773285,409.290680 
	C421.081055,403.009064 415.190643,396.895630 409.182343,390.914032 
	C393.882141,375.681885 378.435425,360.597046 363.122101,345.378052 
	C358.946472,341.228180 359.105713,339.525909 363.236481,335.414215 
	C384.331635,314.416504 405.426697,293.418640 426.501251,272.400299 
	C431.438110,267.476654 432.352509,260.117920 428.822968,254.580322 
	C425.027618,248.625565 418.809235,246.377304 411.987946,249.368134 
	C408.784790,250.772598 405.991638,253.437424 403.447754,255.968353 
	C384.434265,274.885193 365.554382,293.936127 346.578918,312.891357 
	C338.871613,320.590393 338.817993,320.522339 330.952148,312.614777 
	C314.974915,296.552917 298.917786,280.569794 283.031097,264.418945 
	C271.878021,253.080383 258.182709,247.564667 242.617065,247.929016 
	C227.683792,248.278549 214.995667,254.171127 203.974594,264.973846 
	C188.120041,280.514252 183.159668,310.013153 196.105682,330.944885 
	C199.964600,337.184174 200.071167,341.672180 195.154816,347.451447 
z"/>
<path fill="#DB4F5C" opacity="1.000000" stroke="none" 
	d="
M195.364563,347.144501 
	C200.071167,341.672180 199.964600,337.184174 196.105682,330.944885 
	C183.159668,310.013153 188.120041,280.514252 203.974594,264.973846 
	C214.995667,254.171127 227.683792,248.278549 242.617065,247.929016 
	C258.182709,247.564667 271.878021,253.080383 283.031097,264.418945 
	C298.917786,280.569794 314.974915,296.552917 330.952148,312.614777 
	C338.817993,320.522339 338.871613,320.590393 346.578918,312.891357 
	C365.554382,293.936127 384.434265,274.885193 403.447754,255.968353 
	C405.991638,253.437424 408.784790,250.772598 411.987946,249.368134 
	C418.809235,246.377304 425.027618,248.625565 428.822968,254.580322 
	C432.352509,260.117920 431.438110,267.476654 426.501251,272.400299 
	C405.426697,293.418640 384.331635,314.416504 363.236481,335.414215 
	C359.105713,339.525909 358.946472,341.228180 363.122101,345.378052 
	C378.435425,360.597046 393.882141,375.681885 409.182343,390.914032 
	C415.190643,396.895630 421.081055,403.009064 426.773285,409.290680 
	C431.561127,414.574219 431.401672,422.584595 426.820068,427.552216 
	C421.495148,433.325836 414.255676,434.258057 408.263916,428.916046 
	C399.722321,421.300629 391.686096,413.110260 383.561066,405.037598 
	C370.225250,391.787598 356.938782,378.486755 343.753326,365.087463 
	C340.616089,361.899353 338.054779,361.088593 334.566803,364.647308 
	C322.941193,376.508698 311.199280,388.257935 299.389709,399.936615 
	C291.827209,407.415314 284.810425,415.728638 276.259247,421.872833 
	C248.081116,442.119263 207.119095,431.927917 193.212830,400.141205 
	C185.285385,382.020752 185.958618,364.699860 195.364563,347.144501 
M358.125946,337.098907 
	C358.125946,337.098907 358.159058,337.024750 358.689178,336.745850 
	C359.177063,335.909912 359.664948,335.073975 360.673523,333.840485 
	C362.198395,332.276733 363.723297,330.713013 365.859009,329.022125 
	C366.924805,328.043335 367.990631,327.064514 369.577759,325.617737 
	C371.590332,323.328522 373.525543,320.965332 375.629761,318.763733 
	C382.246979,311.840302 388.933167,304.982880 395.582520,298.090118 
	C405.198059,288.122589 414.933228,278.265808 424.353668,268.117004 
	C428.292023,263.874176 427.902618,258.784760 424.185059,254.668137 
	C421.345245,251.523544 415.311920,250.733047 411.452240,253.808838 
	C405.666260,258.419739 400.150055,263.412811 394.855988,268.587982 
	C384.577484,278.635773 374.487579,288.878357 364.410187,299.129333 
	C358.973755,304.659363 354.044525,310.726837 348.312256,315.917694 
	C340.702087,322.809052 340.484650,324.476074 331.742279,318.354828 
	C329.180817,315.899597 326.619354,313.444366 324.036499,310.963623 
	C324.036499,310.963623 324.010864,310.942383 323.763763,310.348328 
	C322.505798,308.936493 321.247833,307.524628 319.432220,305.727173 
	C312.093811,298.417267 304.706726,291.155334 297.438324,283.776459 
	C294.005890,280.291870 291.098358,276.238647 287.418549,273.062225 
	C282.693176,268.983276 277.430237,265.527130 272.191254,261.115509 
	C269.319214,259.322876 266.638306,257.052673 263.544403,255.814438 
	C242.073685,247.221573 222.710220,252.289230 205.978683,266.811432 
	C196.626434,274.928772 194.102921,287.346191 191.026596,299.860168 
	C191.044312,301.572510 191.062012,303.284882 191.013916,305.817230 
	C192.891327,312.083252 194.076630,318.671478 196.808426,324.539764 
	C200.903732,333.337067 204.805237,340.623596 197.432465,350.646759 
	C191.851410,358.234070 189.599182,368.528473 190.813522,378.889709 
	C192.130096,390.122925 195.131653,400.492096 202.603180,409.250458 
	C204.095398,410.999756 205.101685,413.293915 206.858521,414.659546 
	C210.352768,417.375732 214.213013,419.621063 217.959351,422.029724 
	C217.959351,422.029724 217.966263,422.077881 218.254379,422.705902 
	C224.579865,427.757629 232.360306,428.686249 239.905487,429.872162 
	C243.503754,430.437714 247.346802,429.445953 251.856445,429.128082 
	C254.135147,428.252106 256.350830,427.115112 258.703857,426.546906 
	C267.309082,424.468933 274.446442,419.818359 280.689423,413.833282 
	C288.909119,405.953125 296.825714,397.756927 304.878448,389.702423 
	C314.362915,380.215851 323.855255,370.737183 333.340515,361.251404 
	C336.207031,358.384705 339.410278,357.949615 342.669159,360.344299 
	C345.062500,362.102936 347.297668,364.117188 349.408142,366.214020 
	C363.270203,379.985931 377.030182,393.860870 390.927185,407.597260 
	C397.411102,414.006165 404.043518,420.271576 410.768250,426.427673 
	C414.879517,430.191284 418.715759,429.946442 422.645325,426.131012 
	C426.471558,422.415924 427.265930,417.955658 425.764832,412.532379 
	C425.626007,412.255859 425.407867,412.074890 424.883636,411.517670 
	C424.610291,411.307281 424.336975,411.096893 423.988190,410.276398 
	C423.332245,409.556335 422.676300,408.836273 421.769501,407.624115 
	C421.475037,407.410767 421.180542,407.197418 420.657135,406.380676 
	C419.138153,405.215790 417.619141,404.050934 416.000793,402.411987 
	C416.000793,402.411987 415.819794,401.962677 415.720917,401.589478 
	C415.563690,401.354645 415.343811,401.242279 414.499756,400.834473 
	C406.521606,393.214996 398.393646,385.744995 390.603271,377.938171 
	C380.837341,368.151642 371.444824,357.992523 361.676849,348.208130 
	C359.002289,345.529083 357.444946,342.827759 358.025360,338.431519 
	C358.043365,338.009491 358.061371,337.587463 358.125946,337.098907 
z"/>
<path fill="#FA061C" opacity="1.000000" stroke="none" 
	d="
M415.819794,401.962677 
	C415.819794,401.962677 416.000793,402.411987 416.045288,403.014099 
	C417.688538,404.738861 419.287292,405.861450 420.886078,406.984070 
	C421.180542,407.197418 421.475037,407.410767 421.890991,408.213959 
	C422.696167,409.498047 423.379913,410.192291 424.063660,410.886536 
	C424.336975,411.096893 424.610291,411.307281 425.045563,411.962219 
	C425.347992,412.671082 425.558289,412.856018 425.838379,412.961639 
	C427.265930,417.955658 426.471558,422.415924 422.645325,426.131012 
	C418.715759,429.946442 414.879517,430.191284 410.768250,426.427673 
	C404.043518,420.271576 397.411102,414.006165 390.927185,407.597260 
	C377.030182,393.860870 363.270203,379.985931 349.408142,366.214020 
	C347.297668,364.117188 345.062500,362.102936 342.669159,360.344299 
	C339.410278,357.949615 336.207031,358.384705 333.340515,361.251404 
	C323.855255,370.737183 314.362915,380.215851 304.878448,389.702423 
	C296.825714,397.756927 288.909119,405.953125 280.689423,413.833282 
	C274.446442,419.818359 267.309082,424.468933 258.703857,426.546906 
	C256.350830,427.115112 254.135147,428.252106 251.190033,428.817688 
	C243.446182,427.645020 236.368744,426.782715 229.198151,425.909058 
	C229.332520,423.910767 229.415024,422.683899 229.527664,421.008789 
	C225.419220,421.388702 221.692734,421.733276 217.966263,422.077881 
	C217.966263,422.077881 217.959351,422.029724 217.916016,421.688293 
	C214.306824,417.249512 213.482483,410.976929 207.726334,408.576172 
	C207.320007,408.406708 206.971909,407.378357 207.069122,406.833740 
	C207.893188,402.216705 205.231567,400.652802 202.669189,400.501007 
	C200.794189,397.254486 199.940994,394.247955 197.952789,392.688782 
	C194.879776,390.278992 193.451508,388.327759 195.504730,384.474304 
	C196.353134,382.882019 195.810379,380.576019 196.014771,378.606476 
	C196.303238,375.826477 196.678558,373.054810 197.052444,370.284424 
	C197.454056,367.308655 197.896942,364.338440 198.496841,360.141327 
	C201.254822,359.321777 204.513077,356.993561 204.900620,351.967133 
	C205.305527,346.715729 206.135483,341.497803 206.723343,336.258881 
	C206.790894,335.656738 206.549820,334.997894 206.362411,334.393036 
	C205.507202,331.633057 204.620041,328.882965 203.430847,325.143463 
	C202.819092,324.803589 200.998291,323.791962 198.966568,322.663147 
	C201.855759,319.076752 201.655350,315.712677 199.136688,312.798187 
	C196.702042,309.980957 193.784927,307.580658 191.079712,304.997223 
	C191.062012,303.284882 191.044312,301.572510 191.407227,299.388977 
	C197.284302,295.292328 200.707901,290.729462 202.416794,283.903992 
	C203.536087,279.433441 208.201843,275.725372 211.671387,272.045593 
	C212.705811,270.948486 215.178085,271.339569 216.776291,270.589874 
	C217.678513,270.166656 218.611099,268.840393 218.676453,267.863770 
	C218.746674,266.814575 217.817062,265.698456 217.727722,265.501648 
	C219.997299,264.141754 222.085342,263.447174 223.343719,262.020721 
	C225.957977,259.057159 228.815353,257.463226 232.872253,257.927429 
	C234.440918,258.106903 236.217850,257.760406 237.701981,257.162354 
	C244.417633,254.456268 250.621231,255.397629 257.195465,258.264526 
	C261.885681,260.309845 267.304932,260.683228 272.398865,261.802673 
	C277.430237,265.527130 282.693176,268.983276 287.418549,273.062225 
	C291.098358,276.238647 294.005890,280.291870 297.438324,283.776459 
	C304.706726,291.155334 312.093811,298.417267 319.714203,306.300964 
	C319.817230,309.728027 320.970520,311.266449 324.010864,310.942383 
	C324.010864,310.942383 324.036499,310.963623 324.018707,311.371582 
	C323.740173,313.314667 323.479462,314.849823 323.196869,316.513733 
	C325.192444,316.876434 326.803345,317.063446 328.350983,317.483521 
	C329.617371,317.827240 330.808380,318.448792 332.032806,318.947174 
	C340.484650,324.476074 340.702087,322.809052 348.312256,315.917694 
	C354.044525,310.726837 358.973755,304.659363 364.410187,299.129333 
	C374.487579,288.878357 384.577484,278.635773 394.855988,268.587982 
	C400.150055,263.412811 405.666260,258.419739 411.452240,253.808838 
	C415.311920,250.733047 421.345245,251.523544 424.185059,254.668137 
	C427.902618,258.784760 428.292023,263.874176 424.353668,268.117004 
	C414.933228,278.265808 405.198059,288.122589 395.582520,298.090118 
	C388.933167,304.982880 382.246979,311.840302 375.629761,318.763733 
	C373.525543,320.965332 371.590332,323.328522 368.946960,325.830872 
	C367.293488,327.079102 366.270813,328.114166 365.248169,329.149261 
	C363.723297,330.713013 362.198395,332.276733 360.057068,334.014496 
	C359.013458,335.133942 358.586273,336.079346 358.159058,337.024750 
	C358.159058,337.024750 358.125946,337.098907 357.806610,337.118652 
	C357.158051,337.430542 356.828827,337.722626 356.499573,338.014709 
	C356.980011,338.364227 357.460480,338.713745 357.940918,339.063263 
	C357.444946,342.827759 359.002289,345.529083 361.676849,348.208130 
	C371.444824,357.992523 380.837341,368.151642 390.603271,377.938171 
	C398.393646,385.744995 406.521606,393.214996 414.867676,401.197113 
	C415.390869,401.751221 415.585602,401.885529 415.819794,401.962677 
M229.999390,345.499634 
	C229.999390,345.499634 229.975708,345.977783 229.307053,346.087799 
	C227.347198,348.079956 225.480515,350.175018 223.412064,352.047180 
	C211.660553,362.683685 209.073257,375.271301 215.135437,389.811890 
	C220.167847,401.882446 235.282547,410.129272 248.511124,408.043060 
	C257.550354,406.617523 263.603485,401.292175 270.146027,396.149994 
	C270.383484,395.688080 270.620911,395.226135 270.888855,394.207458 
	C271.192688,393.764679 271.496552,393.321899 272.561462,392.901123 
	C274.802979,391.768585 277.044525,390.636047 278.263062,390.020416 
	C280.866730,391.030823 282.781555,391.773926 284.696350,392.517029 
	C284.687439,390.772430 284.442993,388.985596 284.745728,387.296875 
	C284.979126,385.995026 285.899780,384.816345 286.569275,383.473785 
	C286.068115,382.668396 285.464264,381.697937 285.176331,380.173096 
	C287.052673,378.415771 288.929016,376.658417 291.578156,374.909058 
	C293.726288,374.032257 295.874420,373.155457 298.022552,372.278656 
	C298.509949,371.562683 298.997345,370.846680 299.484772,370.130707 
	C298.261292,369.724823 297.037842,369.318970 295.886566,368.197906 
	C295.957214,367.483582 296.027863,366.769257 296.424408,365.873810 
	C296.424408,365.873810 296.797211,365.872284 297.403564,366.276245 
	C299.755096,368.388397 307.417053,368.573914 309.014893,366.000946 
	C310.062592,364.313873 309.516602,361.637085 309.755829,358.452026 
	C310.276215,358.522064 312.102295,358.296082 313.372681,359.030853 
	C316.647614,360.925018 317.690704,359.004913 318.975159,356.563843 
	C319.917725,354.772461 321.374298,353.253143 322.587280,351.601868 
	C323.439819,350.441284 325.065247,349.194611 324.972046,348.103699 
	C324.510651,342.702759 323.837646,337.290222 322.742126,331.984406 
	C322.097504,328.862213 319.369965,328.907288 316.738556,329.513092 
	C316.572479,329.551300 316.308167,328.579163 315.933014,328.393494 
	C314.284302,327.577667 312.578003,326.878174 310.917145,326.107239 
	C310.917145,326.107239 310.939941,326.084778 310.809814,325.713165 
	C310.537628,325.832275 310.265442,325.951416 309.225311,326.093628 
	C308.725677,326.198181 308.226013,326.302704 307.664062,326.332703 
	C307.664062,326.332703 307.590179,326.269623 307.852753,325.539856 
	C307.887238,325.029419 307.921753,324.518982 308.464935,323.634338 
	C307.390228,321.590881 306.031250,319.643677 305.300232,317.483887 
	C303.795319,313.037628 300.999054,312.285278 296.763397,313.474792 
	C296.176270,312.973175 295.589111,312.471558 295.001312,311.118896 
	C294.995239,309.802063 295.132233,308.466095 294.958832,307.171692 
	C294.115143,300.873077 289.887970,297.608368 285.438080,300.084045 
	C285.438080,300.084045 284.990173,300.041290 284.931915,299.347534 
	C283.937866,298.580505 282.943817,297.813477 281.990204,297.016998 
	C281.990204,297.016998 281.954224,297.037476 281.977844,296.291626 
	C280.303223,294.874634 278.628601,293.457642 276.991058,292.008331 
	C276.991058,292.008331 276.959351,292.035126 276.997223,291.288544 
	C278.040680,285.840363 276.099854,284.128693 269.279694,284.987793 
	C268.137878,283.677429 266.996063,282.367035 266.646820,281.016876 
	C268.053833,280.605133 269.460846,280.193420 271.132202,279.704346 
	C267.575104,274.864899 266.554413,274.866394 262.226685,279.016663 
	C261.471039,279.022339 260.715424,279.028015 260.002197,279.002655 
	C260.002197,279.002655 259.969696,279.044861 259.965149,278.318329 
	C258.841766,277.170349 257.922028,275.454529 256.561859,274.966705 
	C247.825424,271.833435 238.434631,271.228485 230.344849,275.215393 
	C214.741425,282.905212 210.300110,297.194427 213.791122,313.099854 
	C214.421326,315.971161 217.221664,318.366150 219.027634,321.776642 
	C219.217499,325.620331 220.317307,328.555634 225.530060,328.151062 
	C225.986206,328.456940 226.442337,328.762817 226.951965,329.801361 
	C227.641922,330.863007 228.331879,331.924652 229.033661,333.839996 
	C229.721176,335.901550 230.408707,337.963135 231.029770,340.804626 
	C230.991074,341.849152 230.952377,342.893707 230.513321,344.201996 
	C230.264618,344.423035 230.107132,344.696594 229.999390,345.499634 
z"/>
<path fill="#F80A21" opacity="1.000000" stroke="none" 
	d="
M191.046814,305.407227 
	C193.784927,307.580658 196.702042,309.980957 199.136688,312.798187 
	C201.655350,315.712677 201.855759,319.076752 198.966568,322.663147 
	C200.998291,323.791962 202.819092,324.803589 203.430847,325.143463 
	C204.620041,328.882965 205.507202,331.633057 206.362411,334.393036 
	C206.549820,334.997894 206.790894,335.656738 206.723343,336.258881 
	C206.135483,341.497803 205.305527,346.715729 204.900620,351.967133 
	C204.513077,356.993561 201.254822,359.321777 198.496841,360.141327 
	C197.896942,364.338440 197.454056,367.308655 197.052444,370.284424 
	C196.678558,373.054810 196.303238,375.826477 196.014771,378.606476 
	C195.810379,380.576019 196.353134,382.882019 195.504730,384.474304 
	C193.451508,388.327759 194.879776,390.278992 197.952789,392.688782 
	C199.940994,394.247955 200.794189,397.254486 202.669189,400.501007 
	C205.231567,400.652802 207.893188,402.216705 207.069122,406.833740 
	C206.971909,407.378357 207.320007,408.406708 207.726334,408.576172 
	C213.482483,410.976929 214.306824,417.249512 217.897354,421.703888 
	C214.213013,419.621063 210.352768,417.375732 206.858521,414.659546 
	C205.101685,413.293915 204.095398,410.999756 202.603180,409.250458 
	C195.131653,400.492096 192.130096,390.122925 190.813522,378.889709 
	C189.599182,368.528473 191.851410,358.234070 197.432465,350.646759 
	C204.805237,340.623596 200.903732,333.337067 196.808426,324.539764 
	C194.076630,318.671478 192.891327,312.083252 191.046814,305.407227 
z"/>
<path fill="#F80A21" opacity="1.000000" stroke="none" 
	d="
M272.295044,261.459106 
	C267.304932,260.683228 261.885681,260.309845 257.195465,258.264526 
	C250.621231,255.397629 244.417633,254.456268 237.701981,257.162354 
	C236.217850,257.760406 234.440918,258.106903 232.872253,257.927429 
	C228.815353,257.463226 225.957977,259.057159 223.343719,262.020721 
	C222.085342,263.447174 219.997299,264.141754 217.727722,265.501648 
	C217.817062,265.698456 218.746674,266.814575 218.676453,267.863770 
	C218.611099,268.840393 217.678513,270.166656 216.776291,270.589874 
	C215.178085,271.339569 212.705811,270.948486 211.671387,272.045593 
	C208.201843,275.725372 203.536087,279.433441 202.416794,283.903992 
	C200.707901,290.729462 197.284302,295.292328 191.446075,298.962463 
	C194.102921,287.346191 196.626434,274.928772 205.978683,266.811432 
	C222.710220,252.289230 242.073685,247.221573 263.544403,255.814438 
	C266.638306,257.052673 269.319214,259.322876 272.295044,261.459106 
z"/>
<path fill="#F80A21" opacity="1.000000" stroke="none" 
	d="
M218.110321,422.391876 
	C221.692734,421.733276 225.419220,421.388702 229.527664,421.008789 
	C229.415024,422.683899 229.332520,423.910767 229.198151,425.909058 
	C236.368744,426.782715 243.446182,427.645020 250.801285,428.833466 
	C247.346802,429.445953 243.503754,430.437714 239.905487,429.872162 
	C232.360306,428.686249 224.579865,427.757629 218.110321,422.391876 
z"/>
<path fill="#F80A21" opacity="1.000000" stroke="none" 
	d="
M331.887543,318.651001 
	C330.808380,318.448792 329.617371,317.827240 328.350983,317.483521 
	C326.803345,317.063446 325.192444,316.876434 323.196869,316.513733 
	C323.479462,314.849823 323.740173,313.314667 324.029419,311.384338 
	C326.619354,313.444366 329.180817,315.899597 331.887543,318.651001 
z"/>
<path fill="#F80A21" opacity="1.000000" stroke="none" 
	d="
M420.771606,406.682373 
	C419.287292,405.861450 417.688538,404.738861 416.094971,403.251160 
	C417.619141,404.050934 419.138153,405.215790 420.771606,406.682373 
z"/>
<path fill="#F80A21" opacity="1.000000" stroke="none" 
	d="
M323.887329,310.645355 
	C320.970520,311.266449 319.817230,309.728027 319.993042,306.493774 
	C321.247833,307.524628 322.505798,308.936493 323.887329,310.645355 
z"/>
<path fill="#DC3040" opacity="1.000000" stroke="none" 
	d="
M365.553589,329.085693 
	C366.270813,328.114166 367.293488,327.079102 368.686279,326.064880 
	C367.990631,327.064514 366.924805,328.043335 365.553589,329.085693 
z"/>
<path fill="#F80A21" opacity="1.000000" stroke="none" 
	d="
M424.025940,410.581451 
	C423.379913,410.192291 422.696167,409.498047 422.016418,408.460022 
	C422.676300,408.836273 423.332245,409.556335 424.025940,410.581451 
z"/>
<path fill="#DC3040" opacity="1.000000" stroke="none" 
	d="
M358.424133,336.885315 
	C358.586273,336.079346 359.013458,335.133942 359.796753,334.213257 
	C359.664948,335.073975 359.177063,335.909912 358.424133,336.885315 
z"/>
<path fill="#DC3040" opacity="1.000000" stroke="none" 
	d="
M357.983154,338.747375 
	C357.460480,338.713745 356.980011,338.364227 356.499573,338.014709 
	C356.828827,337.722626 357.158051,337.430542 357.783325,337.151917 
	C358.061371,337.587463 358.043365,338.009491 357.983154,338.747375 
z"/>
<path fill="#F80A21" opacity="1.000000" stroke="none" 
	d="
M415.770355,401.776062 
	C415.585602,401.885529 415.390869,401.751221 415.148438,401.406067 
	C415.343811,401.242279 415.563690,401.354645 415.770355,401.776062 
z"/>
<path fill="#F80A21" opacity="1.000000" stroke="none" 
	d="
M425.801605,412.747009 
	C425.558289,412.856018 425.347992,412.671082 425.158936,412.198151 
	C425.407867,412.074890 425.626007,412.255859 425.801605,412.747009 
z"/>
<path fill="#F3AEB0" opacity="1.000000" stroke="none" 
	d="
M296.797211,365.872284 
	C296.797211,365.872284 296.424408,365.873810 295.926270,366.035706 
	C290.184662,371.642548 284.941223,377.087494 279.654510,382.576233 
	C279.611237,382.619995 279.528137,382.710815 279.222290,382.792847 
	C276.519653,385.452484 274.122864,388.030060 271.693665,390.624115 
	C271.661224,390.640594 271.606842,390.688873 271.282867,390.773804 
	C268.919800,392.791473 266.893341,394.737701 264.839569,396.654694 
	C252.502747,408.169769 236.334503,408.832977 224.467026,398.253235 
	C223.688843,397.559509 223.326660,396.399170 223.119171,395.367981 
	C228.651154,398.402893 233.488571,402.123413 239.810928,402.990723 
	C250.132965,404.406738 258.298157,400.348969 265.333160,393.362091 
	C280.664032,378.136108 295.927185,362.841858 311.184418,347.541992 
	C312.464722,346.258148 313.420654,344.656281 314.653168,343.318115 
	C316.857330,340.924988 316.185364,338.969299 314.112885,336.880493 
	C296.667206,319.297241 279.347900,301.587555 261.793427,284.114014 
	C256.990356,279.333069 251.144012,275.828247 243.936264,276.930573 
	C238.473297,277.766052 233.118637,279.309692 227.808075,280.210999 
	C231.615860,278.260010 235.202484,275.780731 239.074738,275.197327 
	C246.296783,274.109253 253.582214,274.656067 259.969696,279.044861 
	C259.969696,279.044861 260.002197,279.002655 260.081909,279.339050 
	C269.462433,288.748901 278.763306,297.822388 288.172394,307.030457 
	C288.280640,307.165100 288.585693,307.327271 288.681885,307.628723 
	C289.542694,308.610596 290.307281,309.291016 291.200806,310.221619 
	C291.884552,310.964966 292.439331,311.458160 293.082947,312.268616 
	C294.316803,313.480621 295.461884,314.375366 296.636169,315.265961 
	C296.665405,315.261810 296.705322,315.305298 296.746277,315.593872 
	C297.219696,316.221893 297.652222,316.561279 298.051208,316.950287 
	C298.017700,316.999908 298.100037,316.912018 298.178375,317.218994 
	C299.195770,318.331024 300.134796,319.136139 301.196472,320.149231 
	C301.537750,320.604980 301.803802,320.781158 302.187988,321.179138 
	C302.867401,321.941254 303.476135,322.410004 304.203644,322.998230 
	C304.322449,323.117767 304.611176,323.291534 304.694397,323.604736 
	C305.715149,324.701843 306.652679,325.485748 307.590179,326.269623 
	C307.590179,326.269623 307.664062,326.332703 307.749878,326.688721 
	C311.561829,330.692047 315.288025,334.339355 319.068787,338.390381 
	C319.033569,340.139160 318.943695,341.484283 318.592133,342.970947 
	C318.045532,343.623840 317.760620,344.135132 317.243958,344.745117 
	C316.662598,345.191803 316.312988,345.539825 315.648926,346.015869 
	C310.242981,351.453247 305.151428,356.762604 299.824463,362.290771 
	C298.658417,363.630493 297.727814,364.751404 296.797211,365.872284 
z"/>
<path fill="#F80A21" opacity="1.000000" stroke="none" 
	d="
M315.963379,345.887848 
	C316.312988,345.539825 316.662598,345.191803 317.593079,344.730560 
	C318.400543,344.021332 318.627197,343.425354 318.853821,342.829376 
	C318.943695,341.484283 319.033569,340.139160 319.085571,338.022888 
	C318.045593,335.655945 317.141479,333.987091 316.018005,332.481903 
	C314.392853,330.304596 312.608856,328.245850 310.892609,326.136505 
	C312.578003,326.878174 314.284302,327.577667 315.933014,328.393494 
	C316.308167,328.579163 316.572479,329.551300 316.738556,329.513092 
	C319.369965,328.907288 322.097504,328.862213 322.742126,331.984406 
	C323.837646,337.290222 324.510651,342.702759 324.972046,348.103699 
	C325.065247,349.194611 323.439819,350.441284 322.587280,351.601868 
	C321.374298,353.253143 319.917725,354.772461 318.975159,356.563843 
	C317.690704,359.004913 316.647614,360.925018 313.372681,359.030853 
	C312.102295,358.296082 310.276215,358.522064 309.755829,358.452026 
	C309.516602,361.637085 310.062592,364.313873 309.014893,366.000946 
	C307.417053,368.573914 299.755096,368.388397 297.100403,366.074280 
	C297.727814,364.751404 298.658417,363.630493 300.182983,362.282166 
	C305.470947,357.866150 310.228394,353.744629 314.798706,349.425110 
	C315.592377,348.675018 315.595245,347.088196 315.963379,345.887848 
z"/>
<path fill="#DB424F" opacity="1.000000" stroke="none" 
	d="
M222.770966,395.455872 
	C223.326660,396.399170 223.688843,397.559509 224.467026,398.253235 
	C236.334503,408.832977 252.502747,408.169769 264.839569,396.654694 
	C266.893341,394.737701 268.919800,392.791473 271.389709,391.131104 
	C271.813812,391.895355 271.807129,392.387238 271.800415,392.879120 
	C271.496552,393.321899 271.192688,393.764679 270.678833,394.614929 
	C270.215607,395.210083 270.013489,395.442200 269.862457,395.718781 
	C263.603485,401.292175 257.550354,406.617523 248.511124,408.043060 
	C235.282547,410.129272 220.167847,401.882446 215.135437,389.811890 
	C209.073257,375.271301 211.660553,362.683685 223.412064,352.047180 
	C225.480515,350.175018 227.347198,348.079956 229.798737,346.162354 
	C230.290421,346.236938 230.604462,346.493774 230.454498,346.795410 
	C228.521225,349.248566 226.953888,351.635681 224.913101,353.506348 
	C219.341232,358.613831 215.783600,364.691162 214.384705,372.172882 
	C212.938889,379.905670 216.773361,391.284637 222.579895,395.357849 
	C222.630890,395.410889 222.770966,395.455872 222.770966,395.455872 
z"/>
<path fill="#DC3040" opacity="1.000000" stroke="none" 
	d="
M259.967407,278.681580 
	C253.582214,274.656067 246.296783,274.109253 239.074738,275.197327 
	C235.202484,275.780731 231.615860,278.260010 227.604492,280.287720 
	C227.308655,280.691620 226.940887,280.924744 226.634583,280.926483 
	C225.797379,281.487793 225.266464,282.047363 224.707108,282.642487 
	C224.678650,282.678040 224.606888,282.734070 224.311600,282.804810 
	C223.636719,283.548981 223.257126,284.222412 222.749191,285.050720 
	C222.620834,285.205566 222.406723,285.546143 222.091736,285.654419 
	C213.999435,293.841461 212.939865,306.160736 218.997833,318.356995 
	C219.040527,319.432831 219.089691,320.148254 219.109100,320.892944 
	C219.079330,320.922241 219.020081,320.981049 219.020081,320.981049 
	C217.221664,318.366150 214.421326,315.971161 213.791122,313.099854 
	C210.300110,297.194427 214.741425,282.905212 230.344849,275.215393 
	C238.434631,271.228485 247.825424,271.833435 256.561859,274.966705 
	C257.922028,275.454529 258.841766,277.170349 259.967407,278.681580 
z"/>
<path fill="#DC3040" opacity="1.000000" stroke="none" 
	d="
M288.064148,306.895844 
	C278.763306,297.822388 269.462433,288.748901 260.060669,279.354553 
	C260.715424,279.028015 261.471039,279.022339 262.743530,279.310425 
	C264.125000,280.088348 264.989624,280.572510 265.854248,281.056671 
	C266.996063,282.367035 268.137878,283.677429 269.761963,285.337250 
	C272.482605,287.802856 274.720978,289.919006 276.959351,292.035126 
	C276.959351,292.035126 276.991058,292.008331 277.010712,292.360840 
	C278.671661,294.154755 280.312927,295.596100 281.954224,297.037476 
	C281.954224,297.037476 281.990204,297.016998 282.007568,297.369873 
	C283.013367,298.495605 284.001770,299.268433 284.990173,300.041290 
	C284.990173,300.041290 285.438080,300.084045 285.725891,300.437317 
	C286.697205,302.825653 287.380676,304.860748 288.064148,306.895844 
z"/>
<path fill="#F80A21" opacity="1.000000" stroke="none" 
	d="
M272.180939,392.890137 
	C271.807129,392.387238 271.813812,391.895355 271.713684,391.046173 
	C271.606842,390.688873 271.661224,390.640594 272.048737,390.722961 
	C274.800232,388.107178 277.164185,385.408997 279.528137,382.710815 
	C279.528137,382.710815 279.611237,382.619995 280.004639,382.696655 
	C281.885498,382.091370 283.372925,381.409424 284.860382,380.727478 
	C285.464264,381.697937 286.068115,382.668396 286.569275,383.473785 
	C285.899780,384.816345 284.979126,385.995026 284.745728,387.296875 
	C284.442993,388.985596 284.687439,390.772430 284.696350,392.517029 
	C282.781555,391.773926 280.866730,391.030823 278.263062,390.020416 
	C277.044525,390.636047 274.802979,391.768585 272.180939,392.890137 
z"/>
<path fill="#F80A21" opacity="1.000000" stroke="none" 
	d="
M288.172394,307.030457 
	C287.380676,304.860748 286.697205,302.825653 285.950867,300.438507 
	C289.887970,297.608368 294.115143,300.873077 294.958832,307.171692 
	C295.132233,308.466095 294.995239,309.802063 294.666748,311.545593 
	C293.886200,311.965332 293.440155,311.958313 292.994141,311.951324 
	C292.439331,311.458160 291.884552,310.964966 291.196594,309.843292 
	C290.237518,308.585602 289.411591,307.956451 288.585693,307.327271 
	C288.585693,307.327271 288.280640,307.165100 288.172394,307.030457 
z"/>
<path fill="#F80A21" opacity="1.000000" stroke="none" 
	d="
M302.117249,320.885773 
	C301.803802,320.781158 301.537750,320.604980 301.192200,319.783600 
	C300.076874,318.444000 299.088440,317.678009 298.100037,316.912018 
	C298.100037,316.912018 298.017700,316.999908 298.023529,316.646149 
	C297.588013,315.963379 297.146667,315.634338 296.705322,315.305298 
	C296.705322,315.305298 296.665405,315.261810 296.772095,314.956177 
	C296.929871,314.432465 296.980957,314.214386 297.032013,313.996277 
	C300.999054,312.285278 303.795319,313.037628 305.300232,317.483887 
	C306.031250,319.643677 307.390228,321.590881 307.886780,323.686798 
	C306.409454,323.590027 305.510315,323.440796 304.611176,323.291534 
	C304.611176,323.291534 304.322449,323.117767 304.162537,322.688477 
	C303.374176,321.801361 302.745728,321.343567 302.117249,320.885773 
z"/>
<path fill="#DB424F" opacity="1.000000" stroke="none" 
	d="
M285.018372,380.450287 
	C283.372925,381.409424 281.885498,382.091370 280.047913,382.652863 
	C284.941223,377.087494 290.184662,371.642548 295.763306,366.126282 
	C296.027863,366.769257 295.957214,367.483582 295.571228,368.718689 
	C293.772400,371.126678 292.288879,373.013855 290.805359,374.901062 
	C288.929016,376.658417 287.052673,378.415771 285.018372,380.450287 
z"/>
<path fill="#DB424F" opacity="1.000000" stroke="none" 
	d="
M310.904877,326.121887 
	C312.608856,328.245850 314.392853,330.304596 316.018005,332.481903 
	C317.141479,333.987091 318.045593,335.655945 319.030975,337.619202 
	C315.288025,334.339355 311.561829,330.692047 307.781006,326.725952 
	C308.226013,326.302704 308.725677,326.198181 309.845825,326.098236 
	C310.466370,326.102844 310.939941,326.084778 310.939941,326.084778 
	C310.939941,326.084778 310.917145,326.107239 310.904877,326.121887 
z"/>
<path fill="#F80A21" opacity="1.000000" stroke="none" 
	d="
M276.978271,291.661835 
	C274.720978,289.919006 272.482605,287.802856 270.103271,285.385498 
	C276.099854,284.128693 278.040680,285.840363 276.978271,291.661835 
z"/>
<path fill="#F80A21" opacity="1.000000" stroke="none" 
	d="
M266.250549,281.036774 
	C264.989624,280.572510 264.125000,280.088348 263.121704,279.324097 
	C266.554413,274.866394 267.575104,274.864899 271.132202,279.704346 
	C269.460846,280.193420 268.053833,280.605133 266.250549,281.036774 
z"/>
<path fill="#DC3040" opacity="1.000000" stroke="none" 
	d="
M225.077484,327.836731 
	C220.317307,328.555634 219.217499,325.620331 219.023865,321.378845 
	C219.020081,320.981049 219.079330,320.922241 219.403351,320.939819 
	C220.125320,320.998230 220.523285,321.039032 220.993851,321.382599 
	C221.692978,322.127472 222.319489,322.569580 223.042847,323.141541 
	C223.139679,323.271454 223.211349,323.587463 223.184418,323.955048 
	C223.832382,324.815582 224.507263,325.308563 225.211868,325.789429 
	C225.241592,325.777313 225.303192,325.759369 225.227142,326.101501 
	C225.126572,326.908020 225.102020,327.372375 225.077484,327.836731 
z"/>
<path fill="#F80A21" opacity="1.000000" stroke="none" 
	d="
M291.191772,374.905029 
	C292.288879,373.013855 293.772400,371.126678 295.535156,369.076294 
	C297.037842,369.318970 298.261292,369.724823 299.484772,370.130707 
	C298.997345,370.846680 298.509949,371.562683 298.022552,372.278656 
	C295.874420,373.155457 293.726288,374.032257 291.191772,374.905029 
z"/>
<path fill="#DC3040" opacity="1.000000" stroke="none" 
	d="
M231.096222,340.024658 
	C230.408707,337.963135 229.721176,335.901550 229.053070,333.394775 
	C229.072479,332.949585 229.123917,332.913086 229.414093,333.107086 
	C230.784088,334.869629 231.863937,336.438171 233.004593,338.335449 
	C233.030884,339.106750 232.996368,339.549377 232.650055,339.992004 
	C231.924240,340.002899 231.510239,340.013794 231.096222,340.024658 
z"/>
<path fill="#F80A21" opacity="1.000000" stroke="none" 
	d="
M281.966034,296.664551 
	C280.312927,295.596100 278.671661,294.154755 276.992188,292.377014 
	C278.628601,293.457642 280.303223,294.874634 281.966034,296.664551 
z"/>
<path fill="#DB424F" opacity="1.000000" stroke="none" 
	d="
M231.062988,340.414642 
	C231.510239,340.013794 231.924240,340.002899 232.716248,340.346161 
	C232.652145,341.961700 232.210037,343.223053 231.553589,344.349121 
	C231.197372,344.121979 231.055527,344.030121 230.913696,343.938232 
	C230.952377,342.893707 230.991074,341.849152 231.062988,340.414642 
z"/>
<path fill="#DB424F" opacity="1.000000" stroke="none" 
	d="
M296.897705,313.735535 
	C296.980957,314.214386 296.929871,314.432465 296.742859,314.960327 
	C295.461884,314.375366 294.316803,313.480621 293.082947,312.268616 
	C293.440155,311.958313 293.886200,311.965332 294.667114,311.971130 
	C295.589111,312.471558 296.176270,312.973175 296.897705,313.735535 
z"/>
<path fill="#DB424F" opacity="1.000000" stroke="none" 
	d="
M225.303772,327.993896 
	C225.102020,327.372375 225.126572,326.908020 225.531357,326.203247 
	C226.696716,326.950500 227.481842,327.938202 227.924591,328.959229 
	C227.354324,329.017944 227.126404,329.043335 226.898468,329.068695 
	C226.442337,328.762817 225.986206,328.456940 225.303772,327.993896 
z"/>
<path fill="#DB424F" opacity="1.000000" stroke="none" 
	d="
M304.694397,323.604736 
	C305.510315,323.440796 306.409454,323.590027 307.632446,323.873901 
	C307.921753,324.518982 307.887238,325.029419 307.721466,325.904724 
	C306.652679,325.485748 305.715149,324.701843 304.694397,323.604736 
z"/>
<path fill="#F80A21" opacity="1.000000" stroke="none" 
	d="
M284.961060,299.694397 
	C284.001770,299.268433 283.013367,298.495605 281.987366,297.384583 
	C282.943817,297.813477 283.937866,298.580505 284.961060,299.694397 
z"/>
<path fill="#DC3040" opacity="1.000000" stroke="none" 
	d="
M226.925217,329.435028 
	C227.126404,329.043335 227.354324,329.017944 228.036102,329.179138 
	C228.725647,329.796631 228.961288,330.227570 229.140411,331.033325 
	C229.097229,331.909821 229.110580,332.411438 229.123917,332.913086 
	C229.123917,332.913086 229.072479,332.949585 229.047150,332.967957 
	C228.331879,331.924652 227.641922,330.863007 226.925217,329.435028 
z"/>
<path fill="#F80A21" opacity="1.000000" stroke="none" 
	d="
M270.004242,395.934387 
	C270.013489,395.442200 270.215607,395.210083 270.663574,394.893311 
	C270.620911,395.226135 270.383484,395.688080 270.004242,395.934387 
z"/>
<path fill="#DC3040" opacity="1.000000" stroke="none" 
	d="
M230.040848,345.022675 
	C230.107132,344.696594 230.264618,344.423035 230.713501,344.070129 
	C231.055527,344.030121 231.197372,344.121979 231.451477,344.508850 
	C231.563751,344.803864 231.385239,345.137024 231.050385,345.093689 
	C230.490662,345.041138 230.265762,345.031921 230.040848,345.022675 
z"/>
<path fill="#DB424F" opacity="1.000000" stroke="none" 
	d="
M230.020111,345.261169 
	C230.265762,345.031921 230.490662,345.041138 230.958252,345.339966 
	C231.002136,345.917633 230.803299,346.205688 230.604462,346.493774 
	C230.604462,346.493774 230.290421,346.236938 230.133057,346.107361 
	C229.975708,345.977783 229.999390,345.499634 230.020111,345.261169 
z"/>
<path fill="#F80A21" opacity="1.000000" stroke="none" 
	d="
M310.874878,325.898987 
	C310.939941,326.084778 310.466370,326.102844 310.229797,326.086700 
	C310.265442,325.951416 310.537628,325.832275 310.874878,325.898987 
z"/>
<path fill="#FEFEFE" opacity="1.000000" stroke="none" 
	d="
M222.406723,285.546143 
	C222.406723,285.546143 222.620834,285.205566 223.086395,285.026306 
	C223.903610,284.142731 224.255234,283.438385 224.606873,282.734070 
	C224.606888,282.734070 224.678650,282.678040 225.038940,282.711853 
	C225.913116,282.138672 226.427002,281.531708 226.940887,280.924744 
	C226.940887,280.924744 227.308655,280.691620 227.512222,280.614929 
	C233.118637,279.309692 238.473297,277.766052 243.936264,276.930573 
	C251.144012,275.828247 256.990356,279.333069 261.793427,284.114014 
	C279.347900,301.587555 296.667206,319.297241 314.112885,336.880493 
	C316.185364,338.969299 316.857330,340.924988 314.653168,343.318115 
	C313.420654,344.656281 312.464722,346.258148 311.184418,347.541992 
	C295.927185,362.841858 280.664032,378.136108 265.333160,393.362091 
	C258.298157,400.348969 250.132965,404.406738 239.810928,402.990723 
	C233.488571,402.123413 228.651154,398.402893 223.119171,395.367981 
	C222.770966,395.455872 222.630890,395.410889 222.684601,394.997620 
	C222.383270,393.853851 222.095139,393.080872 221.663010,392.399200 
	C216.362640,384.038544 214.425583,375.052063 219.092575,366.055237 
	C221.911484,360.621033 225.999649,355.659363 230.261078,351.195190 
	C241.743271,339.166687 234.693619,328.910431 222.789337,321.240723 
	C222.774536,321.224915 222.749344,321.189819 222.772064,320.860718 
	C222.197632,320.021729 221.600479,319.511902 221.001617,319.001038 
	C220.999878,319.000000 220.998611,318.995758 221.025726,318.593506 
	C220.712234,316.767395 220.295654,315.356781 220.045074,313.917297 
	C219.253494,309.370270 217.595612,304.724304 218.017090,300.282135 
	C218.492065,295.276367 220.861359,290.450348 222.406723,285.546143 
z"/>
<path fill="#DB424F" opacity="1.000000" stroke="none" 
	d="
M315.648956,346.015869 
	C315.595245,347.088196 315.592377,348.675018 314.798706,349.425110 
	C310.228394,353.744629 305.470947,357.866150 300.418396,362.063354 
	C305.151428,356.762604 310.242981,351.453247 315.648956,346.015869 
z"/>
<path fill="#DB424F" opacity="1.000000" stroke="none" 
	d="
M279.222290,382.792847 
	C277.164185,385.408997 274.800232,388.107178 272.081177,390.706482 
	C274.122864,388.030060 276.519653,385.452484 279.222290,382.792847 
z"/>
<path fill="#DB424F" opacity="1.000000" stroke="none" 
	d="
M298.178375,317.218994 
	C299.088440,317.678009 300.076874,318.444000 301.069550,319.575623 
	C300.134796,319.136139 299.195770,318.331024 298.178375,317.218994 
z"/>
<path fill="#DB424F" opacity="1.000000" stroke="none" 
	d="
M288.681885,307.628723 
	C289.411591,307.956451 290.237518,308.585602 291.067657,309.593140 
	C290.307281,309.291016 289.542694,308.610596 288.681885,307.628723 
z"/>
<path fill="#DB424F" opacity="1.000000" stroke="none" 
	d="
M302.187988,321.179138 
	C302.745728,321.343567 303.374176,321.801361 304.043762,322.568939 
	C303.476135,322.410004 302.867401,321.941254 302.187988,321.179138 
z"/>
<path fill="#DB424F" opacity="1.000000" stroke="none" 
	d="
M318.592163,342.970947 
	C318.627197,343.425354 318.400543,344.021332 317.824829,344.631897 
	C317.760620,344.135132 318.045532,343.623840 318.592163,342.970947 
z"/>
<path fill="#DB424F" opacity="1.000000" stroke="none" 
	d="
M296.746277,315.593872 
	C297.146667,315.634338 297.588013,315.963379 298.057068,316.596527 
	C297.652222,316.561279 297.219696,316.221893 296.746277,315.593872 
z"/>
<path fill="#F3AEB0" opacity="1.000000" stroke="none" 
	d="
M222.804123,321.256500 
	C234.693619,328.910431 241.743271,339.166687 230.261078,351.195190 
	C225.999649,355.659363 221.911484,360.621033 219.092575,366.055237 
	C214.425583,375.052063 216.362640,384.038544 221.663010,392.399200 
	C222.095139,393.080872 222.383270,393.853851 222.633606,394.944611 
	C216.773361,391.284637 212.938889,379.905670 214.384705,372.172882 
	C215.783600,364.691162 219.341232,358.613831 224.913101,353.506348 
	C226.953888,351.635681 228.521225,349.248566 230.454498,346.795410 
	C230.803299,346.205688 231.002136,345.917633 231.293106,345.383301 
	C231.385239,345.137024 231.563751,344.803864 231.665848,344.644165 
	C232.210037,343.223053 232.652145,341.961700 233.028046,340.346161 
	C232.996368,339.549377 233.030884,339.106750 233.072144,337.948822 
	C231.784912,335.041840 230.490936,332.850189 229.196945,330.658508 
	C228.961288,330.227570 228.725647,329.796631 228.378479,329.145782 
	C227.481842,327.938202 226.696716,326.950500 225.607391,325.861084 
	C225.303192,325.759369 225.241592,325.777313 225.148285,325.486084 
	C224.440430,324.659027 223.825882,324.123260 223.211349,323.587463 
	C223.211349,323.587463 223.139679,323.271454 223.023590,322.847839 
	C222.873047,322.034973 222.838577,321.645752 222.804123,321.256500 
z"/>
<path fill="#F3AEB0" opacity="1.000000" stroke="none" 
	d="
M222.091736,285.654419 
	C220.861359,290.450348 218.492065,295.276367 218.017090,300.282135 
	C217.595612,304.724304 219.253494,309.370270 220.045074,313.917297 
	C220.295654,315.356781 220.712234,316.767395 220.748291,318.534485 
	C219.963928,318.584015 219.484116,318.290283 219.004318,317.996552 
	C212.939865,306.160736 213.999435,293.841461 222.091736,285.654419 
z"/>
<path fill="#DB424F" opacity="1.000000" stroke="none" 
	d="
M218.997833,318.356995 
	C219.484116,318.290283 219.963928,318.584015 220.721176,318.936737 
	C220.998611,318.995758 220.999878,319.000000 220.968903,319.306122 
	C221.023224,320.011780 221.108505,320.411285 221.125519,320.877930 
	C221.057251,320.945068 220.921234,321.079865 220.921234,321.079834 
	C220.523285,321.039032 220.125320,320.998230 219.433121,320.910522 
	C219.089691,320.148254 219.040527,319.432831 218.997833,318.356995 
z"/>
<path fill="#F3AEB0" opacity="1.000000" stroke="none" 
	d="
M224.311584,282.804810 
	C224.255234,283.438385 223.903610,284.142731 223.214752,284.871460 
	C223.257126,284.222412 223.636719,283.548981 224.311584,282.804810 
z"/>
<path fill="#F3AEB0" opacity="1.000000" stroke="none" 
	d="
M226.634583,280.926483 
	C226.427002,281.531708 225.913116,282.138672 225.067398,282.676270 
	C225.266464,282.047363 225.797379,281.487793 226.634583,280.926483 
z"/>
<path fill="#DB424F" opacity="1.000000" stroke="none" 
	d="
M223.184418,323.955048 
	C223.825882,324.123260 224.440430,324.659027 225.118561,325.498169 
	C224.507263,325.308563 223.832382,324.815582 223.184418,323.955048 
z"/>
<path fill="#DB424F" opacity="1.000000" stroke="none" 
	d="
M222.789337,321.240723 
	C222.838577,321.645752 222.873047,322.034973 222.926758,322.717957 
	C222.319489,322.569580 221.692978,322.127472 220.993851,321.382629 
	C220.921234,321.079865 221.057251,320.945068 221.379547,320.965698 
	C222.050995,321.054138 222.400162,321.121979 222.749344,321.189819 
	C222.749344,321.189819 222.774536,321.224915 222.789337,321.240723 
z"/>
<path fill="#DB424F" opacity="1.000000" stroke="none" 
	d="
M229.140411,331.033325 
	C230.490936,332.850189 231.784912,335.041840 233.011353,337.620117 
	C231.863937,336.438171 230.784088,334.869629 229.414093,333.107086 
	C229.110580,332.411438 229.097229,331.909821 229.140411,331.033325 
z"/>
<path fill="#F3AEB0" opacity="1.000000" stroke="none" 
	d="
M222.772064,320.860718 
	C222.400162,321.121979 222.050995,321.054138 221.447815,320.898560 
	C221.108505,320.411285 221.023224,320.011780 220.970642,319.307129 
	C221.600479,319.511902 222.197632,320.021729 222.772064,320.860718 
z"/>
</svg>